<svg width="256" height="256" viewBox="0 0 256 256" fill="none" xmlns="http://www.w3.org/2000/svg">
    <path d="M32 145.593C32 177.114 57.7884 202.667 89.6 202.667H176C202.51 202.667 224 181.162 224 154.634C224 134.937 212.153 116.746 195.2 109.333C193.405 78.1068 167.296 53.3333 135.353 53.3333C110.415 53.3333 89.034 69.1879 80 90.6667C51.2 95.3333 32 119.468 32 145.593Z" stroke="#FFA048" stroke-width="30" stroke-linecap="round" stroke-linejoin="round"/>
    <g clip-path="url(#clip0_1_12)">
        <path d="M59.5 86.5C52.8696 86.5 46.5107 89.1339 41.8223 93.8223C37.1339 98.5107 34.5 104.87 34.5 111.5V117.75H28.25C26.5924 117.75 25.0027 118.408 23.8306 119.581C22.6585 120.753 22 122.342 22 124C22 125.658 22.6585 127.247 23.8306 128.419C25.0027 129.592 26.5924 130.25 28.25 130.25H34.5V136.5C34.5 143.13 37.1339 149.489 41.8223 154.178C46.5107 158.866 52.8696 161.5 59.5 161.5H72C81.9456 161.5 91.4839 157.549 98.5165 150.517C105.549 143.484 109.5 133.946 109.5 124C109.5 120.685 110.817 117.505 113.161 115.161C115.505 112.817 118.685 111.5 122 111.5C125.315 111.5 128.495 112.817 130.839 115.161C133.183 117.505 134.5 120.685 134.5 124C134.5 133.946 138.451 143.484 145.483 150.517C152.516 157.549 162.054 161.5 172 161.5H184.5C191.13 161.5 197.489 158.866 202.178 154.178C206.866 149.489 209.5 143.13 209.5 136.5V130.25H215.75C217.408 130.25 218.997 129.592 220.169 128.419C221.342 127.247 222 125.658 222 124C222 122.342 221.342 120.753 220.169 119.581C218.997 118.408 217.408 117.75 215.75 117.75H209.5V111.5C209.5 104.87 206.866 98.5107 202.178 93.8223C197.489 89.1339 191.13 86.5 184.5 86.5H159.5C154.318 86.4981 149.263 88.1065 145.036 91.1028C140.808 94.0991 137.615 98.3351 135.9 103.225C131.79 100.465 126.951 98.9938 122 99C117.049 98.9938 112.21 100.465 108.1 103.225C106.385 98.3351 103.192 94.0991 98.9645 91.1028C94.7365 88.1065 89.682 86.4981 84.5 86.5H59.5ZM59.5 99H71.2625C74.5625 99 75.6125 103.45 72.6625 104.925L66.95 107.775C62.1146 110.194 58.1936 114.115 55.775 118.95L52.925 124.663C51.45 127.613 47 126.563 47 123.25V111.5C47 108.185 48.317 105.005 50.6612 102.661C53.0054 100.317 56.1848 99 59.5 99Z" fill="#B24040"/>
    </g>
    <defs>
        <clipPath id="clip0_1_12">
            <rect width="200" height="200" fill="white" transform="translate(24 21)"/>
        </clipPath>
    </defs>
</svg>